<svg xmlns="http://www.w3.org/2000/svg" version="1.1" xmlns:xlink="http://www.w3.org/1999/xlink" xmlns:svgjs="http://svgjs.dev/svgjs" width="1000" height="623" viewBox="0 0 1000 623"><g transform="matrix(1,0,0,1,-0.6060606060606233,0.2522267206477409)"><svg viewBox="0 0 396 247" data-background-color="#ffffff" preserveAspectRatio="xMidYMid meet" height="623" width="1000" xmlns="http://www.w3.org/2000/svg" xmlns:xlink="http://www.w3.org/1999/xlink"><g id="tight-bounds" transform="matrix(1,0,0,1,0.2400000000000091,-0.09999999999999432)"><svg viewBox="0 0 395.52 247.2" height="247.2" width="395.52"><g><svg></svg></g><g><svg viewBox="0 0 395.52 247.2" height="247.2" width="395.52"><g transform="matrix(1,0,0,1,75.54432,80.91417861874594)"><svg viewBox="0 0 244.43135999999998 85.37164276250812" height="85.37164276250812" width="244.43135999999998"><g><svg viewBox="0 0 410.4564937851942 143.3586310569202" height="85.37164276250812" width="244.43135999999998"><g transform="matrix(1,0,0,1,166.0251337851942,39.98072417399324)"><svg viewBox="0 0 244.43135999999998 63.397182708933705" height="63.397182708933705" width="244.43135999999998"><g id="textblocktransform"><svg viewBox="0 0 244.43135999999998 63.397182708933705" height="63.397182708933705" width="244.43135999999998" id="textblock"><g><svg viewBox="0 0 244.43135999999998 63.397182708933705" height="63.397182708933705" width="244.43135999999998"><g transform="matrix(1,0,0,1,0,0)"><svg width="244.43135999999998" viewBox="0.550000011920929 -35.5 138.7899932861328 36" height="63.397182708933705" data-palette-color="#ea3c12"><path d="M0.55 0L6.9-17.9 0.85-35 6.65-35 10.35-23.7 10.45-23.7 14.25-35 19.45-35 13.4-17.9 19.75 0 13.95 0 9.95-12.2 9.85-12.2 5.75 0 0.55 0ZM22.35 0L22.35-35 30.65-35Q34.9-35 36.85-33.02 38.8-31.05 38.8-26.95L38.8-26.95 38.8-25.55Q38.8-22.85 37.92-21.15 37.05-19.45 35.25-18.7L35.25-18.7 35.25-18.6Q39.35-17.2 39.35-11.3L39.35-11.3 39.35-8.3Q39.35-4.25 37.22-2.13 35.1 0 31 0L31 0 22.35 0ZM27.85-20.75L30-20.75Q31.65-20.75 32.47-21.6 33.3-22.45 33.3-24.45L33.3-24.45 33.3-26.4Q33.3-28.3 32.62-29.15 31.95-30 30.5-30L30.5-30 27.85-30 27.85-20.75ZM27.85-5L31-5Q32.45-5 33.15-5.78 33.85-6.55 33.85-8.45L33.85-8.45 33.85-11.5Q33.85-13.9 33.02-14.83 32.2-15.75 30.3-15.75L30.3-15.75 27.85-15.75 27.85-5ZM50.5 0.5Q46.45 0.5 44.3-1.8 42.15-4.1 42.15-8.3L42.15-8.3 42.15-26.7Q42.15-30.9 44.3-33.2 46.45-35.5 50.5-35.5L50.5-35.5Q54.55-35.5 56.7-33.2 58.85-30.9 58.85-26.7L58.85-26.7 58.85-8.3Q58.85-4.1 56.7-1.8 54.55 0.5 50.5 0.5L50.5 0.5ZM50.5-4.5Q53.35-4.5 53.35-7.95L53.35-7.95 53.35-27.05Q53.35-30.5 50.5-30.5L50.5-30.5Q47.65-30.5 47.65-27.05L47.65-27.05 47.65-7.95Q47.65-4.5 50.5-4.5L50.5-4.5ZM70.29 0.5Q66.34 0.5 64.27-1.75 62.19-4 62.19-8.1L62.19-8.1 62.19-26.9Q62.19-31 64.27-33.25 66.34-35.5 70.29-35.5L70.29-35.5Q74.24-35.5 76.32-33.25 78.39-31 78.39-26.9L78.39-26.9 78.39-23.2 73.19-23.2 73.19-27.25Q73.19-30.5 70.44-30.5L70.44-30.5Q67.69-30.5 67.69-27.25L67.69-27.25 67.69-7.7Q67.69-4.5 70.44-4.5L70.44-4.5Q73.19-4.5 73.19-7.7L73.19-7.7 73.19-13.05 78.39-13.05 78.39-8.1Q78.39-4 76.32-1.75 74.24 0.5 70.29 0.5L70.29 0.5ZM85.99 0L85.99-30 80.24-30 80.24-35 97.24-35 97.24-30 91.49-30 91.49 0 85.99 0ZM99.89 0L99.89-35 106.79-35 112.14-14.05 112.24-14.05 112.24-35 117.14-35 117.14 0 111.49 0 104.89-25.55 104.79-25.55 104.79 0 99.89 0ZM121.24 0L121.24-35 126.74-35 126.74-20.25 133.74-35 139.24-35 132.69-22.15 139.34 0 133.59 0 128.94-15.6 126.74-11.15 126.74 0 121.24 0Z" opacity="1" transform="matrix(1,0,0,1,0,0)" fill="#ea3c12" class="undefined-text-0" data-fill-palette-color="primary" id="text-0"></path></svg></g></svg></g></svg></g></svg></g><g><svg viewBox="0 0 151.05858048 143.3586310569202" height="143.3586310569202" width="151.05858048"><g><svg xmlns:x="http://ns.adobe.com/Extensibility/1.0/" xmlns:i="http://ns.adobe.com/AdobeIllustrator/10.0/" xmlns:graph="http://ns.adobe.com/Graphs/1.0/" xmlns="http://www.w3.org/2000/svg" xmlns:xlink="http://www.w3.org/1999/xlink" xmlns:a="http://ns.adobe.com/AdobeSVGViewerExtensions/3.0/" version="1.1" baseProfile="basic" x="0" y="0" viewBox="5.00000524520874 7 90.28196716308594 85.68000030517578" xml:space="preserve" height="143.3586310569202" width="151.05858048" class="icon-icon-0" data-fill-palette-color="accent" id="icon-0"><g fill="#ea3c12" data-fill-palette-color="accent"><g fill="#ea3c12" data-fill-palette-color="accent"><path fill-rule="evenodd" clip-rule="evenodd" d="M27.8 7c0.08 0 0.16 0 0.24 0 3.782 8.218 8.224 15.776 12 24 6.381-0.5 13.83 0.07 20.16-0.48C64.254 22.813 68.174 14.973 71.96 7c0.08 0 0.16 0 0.24 0 7.237 17.172 21.862 33.197 23.04 56.16 0.241 4.696-0.587 8.264-1.68 12.24-4.015 0.306-9.261-0.621-12.48 0.479 1.035 1.296 3.424 0.721 5.521 0.721 2.093 0 4.413 0 6.239 0-0.838 2.361-2.18 4.22-3.84 5.76-3.039-0.208-6.306-2.591-8.88-1.681 1.859 1.661 5.277 1.764 7.92 2.641-1.594 1.446-3.442 2.638-5.52 3.6-1.924-0.636-2.944-2.176-5.04-2.64-0.549 1.868 2.394 1.999 3.359 3.12-8.327 4.393-19.208 1.431-24-5.04-0.794-1.073-1.03-2.364-1.439-3.36-2.436 3.593-5.646 6.279-10.32 8.641-6.24 3.151-11.692 4.345-18.96 1.199 2.201-1.959 5.494-2.825 7.44-5.04-2.929-0.438-6.17 3.498-9.36 4.561-2.765-1.155-5.445-2.395-7.92-3.84 4.169-2.231 10.464-2.337 14.4-4.801-0.732-1.116-2.44-0.08-3.6 0.24-3.561 0.982-8.259 2.354-12 3.36-3.046-1.754-5.072-4.528-6.96-7.44 6.196-0.872 14.938 0.549 21.12-0.72-0.593-1.306-3.322-0.72-5.04-0.72-5.187 0-11.452 0-16.8 0-1.154-2.446-1.785-5.415-2.4-8.4 0-2.32 0-4.64 0-6.96C8.612 37.732 20.173 24.333 27.8 7zM15.08 35.32c5.439-3.361 12.757-4.843 21.36-5.04-2.758-7.242-5.683-14.318-9.12-20.88C23.27 18.07 18.997 26.517 15.08 35.32zM63.08 30.28c8.713 0.007 16.575 2.145 21.6 5.04-4.483-8.396-8.175-17.584-12.72-25.92C68.947 16.149 65.377 23.614 63.08 30.28zM32.36 61.96c4.751-0.141 4.103-16.594-0.72-15.12C27.843 48.001 28.048 62.088 32.36 61.96zM72.92 59.8c4.796-0.21 4.04-14.687-0.96-12.96C68.407 48.067 68.26 60.004 72.92 59.8zM55.64 78.04c2.686-5.315 5.897-10.104 8.641-15.36-5.681 0.16-12-0.319-17.28 0.24C50.132 67.708 52.521 73.24 55.64 78.04z" fill="#ea3c12" data-fill-palette-color="accent"></path><path fill-rule="evenodd" clip-rule="evenodd" d="M47 92.68c-3.04 0-6.08 0-9.12 0 5.233-1.309 9.748-3.471 13.681-6.479 0.828-0.634 3.181-3.151 3.6-3.12-0.026-0.002 2.421 2.446 2.64 2.64 3.234 2.859 6.17 4.809 10.32 6C61.367 92.327 53.867 92.188 47 92.68z" fill="#ea3c12" data-fill-palette-color="accent"></path></g></g></svg></g></svg></g></svg></g></svg></g><g><path d="M0 123.6c0-68.262 55.338-123.6 123.6-123.6 51.569 0 95.761 31.581 114.292 76.458h-1.845c-18.432-43.914-61.838-74.755-112.447-74.756-67.322 0-121.898 54.575-121.898 121.898 0 67.322 54.575 121.898 121.898 121.898 50.609 0 94.015-30.842 112.447-74.756h1.845c-18.531 44.877-62.723 76.458-114.292 76.458-68.262 0-123.6-55.338-123.6-123.6z" fill="#ea3c12" stroke="transparent" data-fill-palette-color="tertiary"></path></g></svg></g><defs></defs></svg><rect width="395.52" height="247.2" fill="none" stroke="none" visibility="hidden"></rect></g></svg></g></svg>